<svg width="100" height="100" viewBox="0 0 100 100" fill="none" xmlns="http://www.w3.org/2000/svg">
<title>Back</title>
<path d="M50.3828 21.875C35.0703 21.875 22.6562 34.4664 22.6562 49.9977C22.6562 65.5289 35.0703 78.1203 50.3828 78.1203C65.6953 78.1203 78.1094 65.5289 78.1094 49.9977C78.1094 34.4664 65.6953 21.875 50.3828 21.875ZM50.3828 75.4578C36.5469 75.4578 25.2813 64.0312 25.2813 49.9977C25.2813 35.9641 36.5469 24.5375 50.3828 24.5375C64.2188 24.5375 75.4844 35.9641 75.4844 49.9977C75.4844 64.0312 64.2188 75.4578 50.3828 75.4578Z" fill="black"/>
<path d="M62.8555 48.9729H39.668L47.9805 40.5416C48.4727 40.0424 48.4727 39.1549 47.9805 38.6557C47.4883 38.1564 46.6133 38.1564 46.1211 38.6557L35.5117 49.3611C35.4023 49.4721 35.293 49.6385 35.2383 49.8049C35.1289 50.1377 35.1289 50.526 35.2383 50.8033C35.293 50.9697 35.4023 51.1361 35.5117 51.2471L46.1211 61.9525C46.3945 62.2299 46.7227 62.3408 47.0508 62.3408C47.3789 62.3408 47.707 62.2299 47.9805 61.9525C48.4727 61.4533 48.4727 60.5658 47.9805 60.0666L39.668 51.6354H62.9102C63.6211 51.6354 64.2227 51.0252 64.2227 50.3041C64.2227 49.583 63.6211 48.9729 62.8555 48.9729Z" fill="black"/>
</svg>
