<svg width="32" height="32" viewBox="0 0 55 55" fill="none" xmlns="http://www.w3.org/2000/svg">
<title>Configuration</title>
<path d="M52.0602 31.16L49.7802 29.61V25.39L52.0602 23.84C52.4302 23.59 52.5902 23.12 52.4502 22.7L50.5302 16.85C50.3902 16.43 50.0102 16.15 49.5502 16.16L46.7702 16.24L44.2602 12.81L45.1902 10.23C45.3402 9.81 45.2002 9.34 44.8302 9.08L39.8102 5.47C39.4602 5.21 38.9702 5.22 38.6202 5.48L36.4102 7.15L32.3402 5.84L31.5502 3.2C31.4302 2.79 31.0402 2.5 30.6002 2.5H24.4002C23.9602 2.5 23.5702 2.79 23.4402 3.21L22.6502 5.85L18.5802 7.16L16.3702 5.49C16.0202 5.23 15.5402 5.22 15.1802 5.48L10.1602 9.09C9.80021 9.34 9.66021 9.81 9.81021 10.23L10.7402 12.81L8.23021 16.24L5.45021 16.16C5.44021 16.16 5.43021 16.16 5.42021 16.16C4.99021 16.16 4.61021 16.44 4.47021 16.85L2.55021 22.7C2.41021 23.12 2.57021 23.59 2.94021 23.84L5.22021 25.39V29.61L2.94021 31.16C2.57021 31.41 2.41021 31.88 2.55021 32.3L4.47021 38.15C4.61021 38.56 4.99021 38.84 5.42021 38.84C5.43021 38.84 5.44021 38.84 5.45021 38.84L8.23021 38.76L10.7402 42.19L9.81021 44.77C9.66021 45.19 9.80021 45.66 10.1702 45.92L15.1902 49.53C15.5502 49.79 16.0302 49.78 16.3802 49.51L18.5902 47.84L22.6602 49.15L23.4502 51.79C23.5802 52.21 23.9702 52.5 24.4102 52.5H30.6102C31.0502 52.5 31.4402 52.21 31.5702 51.79L32.3602 49.15L36.4302 47.84L38.6402 49.51C38.9902 49.78 39.4702 49.78 39.8302 49.53L44.8502 45.92C45.2102 45.66 45.3602 45.19 45.2102 44.77L44.2802 42.19L46.7902 38.76L49.5702 38.84C50.0302 38.81 50.4102 38.57 50.5502 38.15L52.4702 32.3C52.5902 31.88 52.4302 31.41 52.0602 31.16ZM48.8602 36.82L46.3002 36.75C45.9702 36.74 45.6602 36.89 45.4702 37.16L42.3302 41.44C42.1302 41.71 42.0802 42.06 42.2002 42.37L43.0502 44.74L39.2402 47.48L37.2102 45.94C36.9502 45.74 36.6102 45.69 36.3002 45.78L31.2302 47.41C30.9202 47.51 30.6702 47.76 30.5802 48.08L29.8502 50.51H25.1402L24.4102 48.08C24.3202 47.76 24.0702 47.52 23.7602 47.41L18.6902 45.78C18.3802 45.68 18.0402 45.74 17.7802 45.94L15.7502 47.48L11.9402 44.74L12.7902 42.37C12.9002 42.06 12.8502 41.71 12.6602 41.44L9.52021 37.16C9.33021 36.9 9.02021 36.75 8.69021 36.75L6.14021 36.82L4.69021 32.39L6.79021 30.96C7.06021 30.77 7.23021 30.46 7.23021 30.13V24.85C7.23021 24.52 7.07021 24.21 6.79021 24.02L4.69021 22.59L6.14021 18.16L8.69021 18.23C9.01021 18.24 9.33021 18.09 9.52021 17.82L12.6602 13.54C12.8602 13.27 12.9102 12.92 12.7902 12.61L11.9402 10.24L15.7502 7.5L17.7802 9.04C18.0402 9.24 18.3802 9.29 18.6902 9.2L23.7602 7.57C24.0702 7.47 24.3202 7.22 24.4102 6.9L25.1402 4.47H29.8502L30.5802 6.9C30.6702 7.22 30.9202 7.47 31.2302 7.57L36.3002 9.2C36.6102 9.3 36.9502 9.24 37.2102 9.04L39.2402 7.5L43.0502 10.24L42.2002 12.61C42.0902 12.92 42.1402 13.27 42.3302 13.54L45.4702 17.82C45.6602 18.08 45.9802 18.24 46.3002 18.23L48.8602 18.16L50.3102 22.59L48.2102 24.02C47.9402 24.21 47.7702 24.52 47.7702 24.85V30.13C47.7702 30.46 47.9302 30.77 48.2102 30.96L50.3102 32.39L48.8602 36.82Z" fill="black"/>
<path d="M27.5002 12.66C19.3202 12.66 12.6602 19.32 12.6602 27.5C12.6602 35.68 19.3202 42.34 27.5002 42.34C35.6802 42.34 42.3402 35.68 42.3402 27.5C42.3402 19.32 35.6802 12.66 27.5002 12.66ZM35.0902 37.83L31.1402 33.88C31.6902 33.55 32.2202 33.16 32.6902 32.68C33.1602 32.21 33.5602 31.69 33.8902 31.13L37.8402 35.07C37.0602 36.14 36.1402 37.06 35.0902 37.83ZM28.9602 23.34L26.7702 21.15C28.4302 21.07 30.0802 21.67 31.2702 22.87C32.3902 23.99 33.0102 25.49 33.0102 27.07C33.0102 28.65 32.3902 30.15 31.2702 31.27C28.9502 33.59 25.1802 33.59 22.8602 31.27C21.6602 30.07 21.0602 28.42 21.1402 26.77L23.3302 28.96C23.5402 29.17 23.8402 29.28 24.1502 29.25L27.9302 28.82C28.3902 28.77 28.7602 28.4 28.8102 27.94L29.2402 24.16C29.2902 23.86 29.1802 23.56 28.9602 23.34ZM38.9202 33.34L34.7402 29.16C34.9202 28.49 35.0202 27.79 35.0202 27.07C35.0202 24.95 34.1902 22.95 32.6902 21.45C30.5402 19.3 27.2902 18.57 24.4102 19.59C24.0902 19.71 23.8402 19.98 23.7702 20.31C23.6902 20.64 23.8002 20.99 24.0402 21.24L27.2102 24.41L26.9302 26.92L24.4202 27.2L21.2502 24.03C21.0102 23.79 20.6602 23.68 20.3202 23.76C19.9902 23.84 19.7102 24.08 19.6002 24.4C18.5802 27.28 19.3102 30.53 21.4602 32.68C23.0102 34.23 25.0402 35 27.0802 35C27.7802 35 28.4802 34.9 29.1602 34.72L33.3502 38.91C31.5902 39.81 29.6102 40.33 27.5102 40.33C20.4302 40.33 14.6702 34.57 14.6702 27.49C14.6702 20.41 20.4302 14.65 27.5102 14.65C34.5902 14.65 40.3502 20.41 40.3502 27.49C40.3402 29.61 39.8202 31.59 38.9202 33.34Z" fill="black"/>
</svg>
