<!-- Generated by IcoMoon.io -->
<svg version="1.1" xmlns="http://www.w3.org/2000/svg" width="32" height="32" viewBox="0 0 32 32">
<title>Config</title>
<path fill="none" stroke-linejoin="round" stroke-linecap="round" stroke-miterlimit="10" stroke-width="1.2308" stroke="#000" d="M25.086 26.56c-0.284 0.099-0.586 0.143-0.887 0.128s-0.597-0.089-0.869-0.217c-0.272-0.128-0.517-0.307-0.718-0.528s-0.357-0.479-0.458-0.759c-0.101-0.279-0.145-0.575-0.13-0.871s0.091-0.586 0.221-0.854c0.13-0.267 0.312-0.507 0.537-0.705s0.486-0.35 0.771-0.448c0.284-0.1 0.585-0.143 0.886-0.128s0.596 0.089 0.868 0.217c0.272 0.128 0.516 0.307 0.717 0.528s0.356 0.478 0.456 0.758c0.101 0.279 0.145 0.575 0.13 0.87s-0.090 0.586-0.219 0.853c-0.129 0.267-0.311 0.507-0.535 0.705s-0.485 0.351-0.769 0.45v0zM14.333 10.874c0 1.788-1.476 3.246-3.301 3.246s-3.301-1.458-3.301-3.246c0-1.794 1.476-3.246 3.301-3.246s3.301 1.452 3.301 3.246z"></path>
<path fill="none" stroke-linejoin="round" stroke-linecap="round" stroke-miterlimit="10" stroke-width="1.2308" stroke="#000" d="M19.123 17.41l-1.109-2.675c0.316-0.538 0.561-1.128 0.735-1.75l2.702-1.115v-2.005l-2.702-1.116c-0.171-0.611-0.418-1.199-0.735-1.75l1.109-2.663-1.444-1.421-2.721 1.091c-0.548-0.311-1.141-0.551-1.766-0.723l-1.141-2.656-2.031-0.013-1.147 2.669c-0.619 0.171-1.219 0.419-1.766 0.723l-2.721-1.091-1.444 1.421 1.109 2.663c-0.315 0.551-0.561 1.128-0.735 1.75l-2.701 1.115v2.004l2.701 1.116c0.174 0.622 0.419 1.212 0.735 1.75l-1.108 2.676 1.444 1.407 2.708-1.090c0.548 0.31 1.147 0.564 1.779 0.729l1.141 2.663h2.031l1.134-2.663c0.632-0.165 1.238-0.419 1.786-0.729l2.715 1.090 1.444-1.408zM11.033 14.12c-0.875-0.001-1.714-0.343-2.333-0.951s-0.967-1.434-0.967-2.295c0-1.794 1.476-3.246 3.301-3.246s3.301 1.452 3.301 3.246c-0.001 0.861-0.348 1.686-0.967 2.295s-1.458 0.951-2.333 0.951v0zM29.876 24.062l1.508-1.351-0.471-1.306-2.037-0.12c-0.259-0.362-0.562-0.692-0.903-0.983l0.096-1.997-1.27-0.609-1.528 1.338c-0.44-0.079-0.889-0.1-1.334-0.064l-1.373-1.483-1.335 0.463-0.116 2.004c-0.368 0.25-0.704 0.544-0.999 0.875l-2.037-0.096-0.606 1.262 1.354 1.503c-0.080 0.431-0.102 0.87-0.065 1.306l-1.508 1.351 0.464 1.312 2.043 0.12c0.258 0.355 0.561 0.685 0.89 0.971l-0.096 2.010 1.283 0.603 1.521-1.338c0.44 0.077 0.889 0.101 1.335 0.070l1.373 1.483 1.335-0.463 0.116-2.003c0.369-0.249 0.703-0.546 0.993-0.881l2.043 0.095 0.606-1.255-1.354-1.497c0.079-0.435 0.103-0.878 0.071-1.319v0zM25.086 26.56c-0.284 0.099-0.586 0.143-0.887 0.128s-0.597-0.089-0.869-0.217c-0.273-0.128-0.517-0.307-0.718-0.528s-0.357-0.479-0.458-0.759c-0.101-0.279-0.145-0.575-0.13-0.872s0.091-0.586 0.221-0.854c0.13-0.267 0.312-0.507 0.537-0.705s0.487-0.35 0.771-0.448c0.284-0.1 0.585-0.143 0.886-0.128s0.596 0.089 0.868 0.217c0.272 0.128 0.516 0.307 0.717 0.528s0.356 0.478 0.456 0.758c0.101 0.279 0.145 0.575 0.13 0.87s-0.090 0.586-0.219 0.853c-0.129 0.267-0.311 0.507-0.535 0.705s-0.485 0.351-0.769 0.45v0z"></path>
<path fill="none" stroke-linejoin="round" stroke-linecap="round" stroke-miterlimit="10" stroke-width="1.2308" stroke="#000" d="M25.086 26.56c-0.284 0.099-0.586 0.143-0.887 0.128s-0.597-0.089-0.869-0.217c-0.272-0.128-0.517-0.307-0.718-0.528s-0.357-0.479-0.458-0.759c-0.101-0.279-0.145-0.575-0.13-0.872s0.091-0.586 0.221-0.854c0.13-0.267 0.312-0.507 0.537-0.705s0.486-0.35 0.771-0.448c0.284-0.1 0.585-0.143 0.886-0.128s0.596 0.089 0.868 0.217c0.272 0.128 0.516 0.307 0.717 0.528s0.356 0.478 0.456 0.758c0.101 0.279 0.145 0.575 0.13 0.87s-0.090 0.586-0.219 0.853c-0.129 0.267-0.311 0.507-0.535 0.705s-0.485 0.351-0.769 0.45v0z"></path>
</svg>
