<svg width="32" height="32" viewBox="0 0 52 52" fill="none" xmlns="http://www.w3.org/2000/svg">
<title>Configuration</title>
<path d="M40.7652 43.1594C40.303 43.3211 39.813 43.3916 39.3231 43.3667C38.8332 43.3419 38.3531 43.2222 37.9104 43.0145C37.4676 42.8069 37.0709 42.5153 36.7429 42.1566C36.4149 41.7978 36.1621 41.3789 35.999 40.9239C35.8346 40.4702 35.763 39.9889 35.7883 39.5078C35.8136 39.0267 35.9354 38.5552 36.1467 38.1206C36.3579 37.6859 36.6544 37.2966 37.0191 36.9751C37.3839 36.6535 37.8096 36.406 38.272 36.2469C38.7334 36.0851 39.2227 36.0147 39.7119 36.0396C40.2011 36.0645 40.6804 36.1843 41.1224 36.392C41.5643 36.5998 41.9601 36.8914 42.2871 37.2501C42.614 37.6088 42.8657 38.0276 43.0275 38.4823C43.1919 38.9354 43.2638 39.416 43.239 39.8966C43.2143 40.3771 43.0933 40.8481 42.8832 41.2825C42.673 41.717 42.3778 42.1064 42.0143 42.4285C41.6509 42.7506 41.2264 42.9989 40.7652 43.1594V43.1594ZM23.2915 17.6698C23.2915 20.576 20.8925 22.9448 17.928 22.9448C14.9634 22.9448 12.5645 20.576 12.5645 17.6698C12.5645 14.7542 14.9634 12.3948 17.928 12.3948C20.8925 12.3948 23.2915 14.7542 23.2915 17.6698Z" stroke="black" stroke-width="2" stroke-miterlimit="10" stroke-linecap="round" stroke-linejoin="round"/>
<path d="M31.0754 28.2917L29.2738 23.9448C29.7875 23.0698 30.1847 22.1115 30.4675 21.101L34.8576 19.2885V16.0312L30.4675 14.2177C30.1899 13.2252 29.7889 12.2701 29.2738 11.374L31.0754 7.04687L28.7294 4.73854L24.3085 6.51146C23.4178 6.00625 22.454 5.61562 21.4383 5.33646L19.5837 1.02083L16.2834 1L14.4193 5.3375C13.4131 5.61562 12.4387 6.01771 11.5491 6.5125L7.1282 4.73958L4.78114 7.04792L6.58274 11.375C6.07011 12.2708 5.67188 13.2083 5.38909 14.2187L1 16.0312V19.2875L5.38909 21.101C5.67188 22.1115 6.07011 23.0698 6.58274 23.9448L4.7822 28.2927L7.1282 30.5792L11.5279 28.8083C12.4176 29.3125 13.392 29.725 14.4193 29.9927L16.2728 34.3198H19.5731L21.416 29.9927C22.4434 29.725 23.4284 29.3125 24.3181 28.8073L28.7294 30.5792L31.0754 28.2927V28.2917ZM17.9293 22.9458C16.5071 22.945 15.1434 22.389 14.1377 21.3999C13.132 20.4108 12.5667 19.0696 12.5658 17.6708C12.5658 14.7552 14.9648 12.3958 17.9293 12.3958C20.8939 12.3958 23.2928 14.7552 23.2928 17.6708C23.292 19.0696 22.7266 20.4108 21.721 21.3999C20.7153 22.389 19.3516 22.945 17.9293 22.9458V22.9458ZM48.5491 39.1L51 36.9052L50.2353 34.7833L46.9255 34.5875C46.5042 33.9986 46.0116 33.4624 45.4586 32.9906L45.6153 29.7448L43.5521 28.7552L41.0695 30.9302C40.3545 30.8024 39.6256 30.7674 38.9014 30.826L36.6698 28.4156L34.5007 29.1677L34.3121 32.424C33.7139 32.8309 33.1687 33.3085 32.6885 33.8458L29.3787 33.6906L28.3937 35.7417L30.5935 38.1833C30.4637 38.883 30.4284 39.5965 30.4886 40.3052L28.0378 42.5L28.7919 44.6323L32.1123 44.8281C32.5317 45.4052 33.0232 45.9417 33.558 46.4052L33.4013 49.6708L35.4857 50.65L37.9577 48.476C38.6732 48.6017 39.4018 48.6398 40.1268 48.5896L42.3574 51L44.5265 50.2479L44.715 46.9927C45.3146 46.5873 45.857 46.1057 46.3281 45.5604L49.6485 45.7146L50.6335 43.675L48.4337 41.2427C48.5619 40.5359 48.6007 39.8162 48.5491 39.1V39.1ZM40.7655 43.1594C40.3034 43.3211 39.8133 43.3916 39.3234 43.3667C38.8335 43.3419 38.3535 43.2222 37.9107 43.0145C37.4679 42.8069 37.0712 42.5153 36.7432 42.1566C36.4152 41.7978 36.1624 41.379 35.9994 40.924C35.8349 40.4702 35.7633 39.9889 35.7886 39.5078C35.814 39.0267 35.9357 38.5552 36.147 38.1206C36.3582 37.6859 36.6547 37.2966 37.0194 36.9751C37.3842 36.6535 37.81 36.406 38.2723 36.2469C38.7337 36.0851 39.223 36.0147 39.7122 36.0396C40.2014 36.0645 40.6807 36.1843 41.1227 36.3921C41.5646 36.5998 41.9605 36.8914 42.2874 37.2501C42.6144 37.6088 42.866 38.0276 43.0278 38.4823C43.1922 38.9354 43.2641 39.416 43.2394 39.8966C43.2146 40.3771 43.0937 40.8481 42.8835 41.2825C42.6733 41.717 42.3781 42.1064 42.0146 42.4285C41.6512 42.7506 41.2267 42.9989 40.7655 43.1594V43.1594Z" stroke="black" stroke-width="2" stroke-miterlimit="10" stroke-linecap="round" stroke-linejoin="round"/>
<path d="M40.7655 43.1594C40.3034 43.3211 39.8133 43.3916 39.3235 43.3667C38.8336 43.3419 38.3535 43.2222 37.9107 43.0145C37.468 42.8069 37.0712 42.5153 36.7432 42.1566C36.4153 41.7978 36.1625 41.379 35.9994 40.924C35.835 40.4702 35.7633 39.9889 35.7887 39.5078C35.814 39.0267 35.9358 38.5552 36.147 38.1206C36.3582 37.6859 36.6547 37.2966 37.0195 36.9751C37.3842 36.6535 37.81 36.406 38.2723 36.2469C38.7337 36.0851 39.2231 36.0147 39.7122 36.0396C40.2014 36.0645 40.6808 36.1843 41.1227 36.3921C41.5647 36.5998 41.9605 36.8914 42.2874 37.2501C42.6144 37.6088 42.866 38.0276 43.0279 38.4823C43.1923 38.9354 43.2642 39.416 43.2394 39.8966C43.2146 40.3771 43.0937 40.8481 42.8835 41.2825C42.6734 41.717 42.3781 42.1064 42.0147 42.4285C41.6512 42.7506 41.2267 42.9989 40.7655 43.1594V43.1594Z" stroke="black" stroke-width="2" stroke-miterlimit="10" stroke-linecap="round" stroke-linejoin="round"/>
</svg>
