<!-- Generated by IcoMoon.io -->
<svg version="1.1" xmlns="http://www.w3.org/2000/svg" width="32" height="32" viewBox="0 0 32 32">
<title>Content</title>
<path d="M28.16 3.2h-24.32c-1.059 0-1.92 0.861-1.92 1.92v18.56c0 1.059 0.861 1.92 1.92 1.92h9.616l-0.214 0.541c-0.339 0.838-1.139 1.379-2.042 1.379h-1.28c-0.352 0-0.64 0.288-0.64 0.64s0.288 0.64 0.64 0.64h12.16c0.352 0 0.64-0.288 0.64-0.64s-0.288-0.64-0.64-0.64h-1.28c-0.902 0-1.702-0.541-2.038-1.379l-0.218-0.541h9.616c1.059 0 1.92-0.861 1.92-1.92v-18.56c0-1.059-0.861-1.92-1.92-1.92zM3.2 5.12c0-0.352 0.288-0.64 0.64-0.64h24.32c0.352 0 0.64 0.288 0.64 0.64v16h-25.6v-16zM17.571 26.614c0.134 0.333 0.314 0.637 0.531 0.906h-4.205c0.218-0.269 0.397-0.573 0.531-0.906l0.403-1.014h2.333l0.406 1.014zM28.8 23.68c0 0.352-0.288 0.64-0.64 0.64h-24.32c-0.352 0-0.64-0.288-0.64-0.64v-1.28h25.6v1.28z"></path>
<path d="M24.32 6.4h-7.040c-0.493 0-0.941 0.189-1.28 0.493-0.339-0.304-0.787-0.493-1.28-0.493h-7.040c-0.352 0-0.64 0.288-0.64 0.64v9.6c0 0.352 0.288 0.64 0.64 0.64h7.040c0.352 0 0.64 0.288 0.64 0.64s0.288 0.64 0.64 0.64c0.352 0 0.64-0.288 0.64-0.64s0.288-0.64 0.64-0.64h2.24v1.28c0 0.352 0.288 0.64 0.64 0.64s0.64-0.288 0.64-0.64v-1.28h3.52c0.352 0 0.64-0.288 0.64-0.64v-9.6c0-0.352-0.288-0.64-0.64-0.64zM15.36 16.109c-0.202-0.070-0.416-0.109-0.64-0.109h-6.4v-8.32h6.4c0.352 0 0.64 0.288 0.64 0.64v7.789zM23.68 16h-6.4c-0.224 0-0.438 0.038-0.64 0.109v-7.789c0-0.352 0.288-0.64 0.64-0.64h6.4v8.32z"></path>
</svg>
