<svg width="30" height="30" viewBox="0 0 30 30" fill="none" xmlns="http://www.w3.org/2000/svg">
<path d="M15 23.7891C13.207 23.7891 11.3555 23.3437 9.49219 22.4707C8.0332 21.7852 6.5625 20.8359 5.12109 19.6465C2.68945 17.6367 1.18945 15.6445 1.125 15.5625C0.873047 15.2285 0.873047 14.7715 1.125 14.4375C1.18945 14.3555 2.68945 12.3633 5.12109 10.3535C6.5625 9.16406 8.0332 8.21484 9.49219 7.5293C11.3555 6.65625 13.207 6.21094 15 6.21094C16.793 6.21094 18.6445 6.65625 20.5078 7.5293C21.9668 8.21484 23.4375 9.16406 24.8789 10.3535C27.3105 12.3633 28.8164 14.3555 28.875 14.4375C29.1269 14.7715 29.1269 15.2285 28.875 15.5625C28.8105 15.6445 27.3105 17.6367 24.8789 19.6465C23.4375 20.8359 21.9668 21.7852 20.5078 22.4707C18.6445 23.3437 16.793 23.7891 15 23.7891ZM3.08203 15C4.55273 16.7402 9.41015 21.9141 15 21.9141C20.6016 21.9141 25.4473 16.7402 26.918 15C25.4473 13.2598 20.5898 8.08594 15 8.08594C9.39844 8.08594 4.55273 13.2598 3.08203 15Z" fill="#696969"/>
<path d="M15 19.2188C12.6738 19.2188 10.7812 17.3262 10.7812 15C10.7812 12.6738 12.6738 10.7812 15 10.7812C17.3262 10.7812 19.2188 12.6738 19.2188 15C19.2188 17.3262 17.3262 19.2188 15 19.2188ZM15 12.6562C13.7051 12.6562 12.6562 13.7051 12.6562 15C12.6562 16.2949 13.7051 17.3438 15 17.3438C16.2949 17.3438 17.3438 16.2949 17.3438 15C17.3438 13.7051 16.2949 12.6562 15 12.6562Z" fill="#696969"/>
</svg>
