<!-- Generated by IcoMoon.io -->
<svg version="1.1" xmlns="http://www.w3.org/2000/svg" width="32" height="32" viewBox="0 0 32 32">
<title>Profile</title>
<path d="M16 16.43c-0.912 0.001-1.804-0.269-2.563-0.775s-1.35-1.226-1.7-2.068c-0.35-0.842-0.442-1.769-0.264-2.664s0.616-1.716 1.26-2.362c0.645-0.645 1.466-1.085 2.36-1.263s1.822-0.087 2.664 0.261c0.843 0.349 1.563 0.94 2.070 1.698s0.777 1.65 0.777 2.562c-0.001 1.221-0.487 2.392-1.35 3.256s-2.034 1.351-3.255 1.353zM16 8.715c-0.616-0.001-1.217 0.181-1.73 0.522s-0.912 0.827-1.148 1.395c-0.236 0.569-0.298 1.194-0.178 1.798s0.416 1.158 0.851 1.594c0.435 0.435 0.99 0.732 1.594 0.851s1.229 0.058 1.798-0.178c0.569-0.236 1.054-0.635 1.396-1.148s0.523-1.114 0.522-1.73c0-0.824-0.327-1.613-0.909-2.196s-1.372-0.909-2.196-0.909zM16 28.32c-2.76-0.003-5.439-0.93-7.61-2.635-0.081-0.064-0.148-0.144-0.197-0.236s-0.079-0.191-0.088-0.294c0-0.080 0-0.155 0-0.235 0-1.037 0.204-2.065 0.601-3.023s0.979-1.829 1.713-2.563c0.734-0.734 1.604-1.316 2.563-1.712s1.986-0.601 3.023-0.601 2.065 0.204 3.023 0.601c0.958 0.397 1.829 0.979 2.563 1.712s1.315 1.604 1.712 2.563c0.397 0.958 0.601 1.986 0.601 3.023 0 0.080 0 0.155 0 0.235-0.009 0.103-0.039 0.203-0.088 0.294s-0.116 0.171-0.197 0.236c-2.173 1.707-4.857 2.635-7.62 2.635zM9.605 24.725c1.855 1.361 4.095 2.095 6.395 2.095s4.54-0.734 6.395-2.095c-0.065-1.652-0.768-3.215-1.96-4.361s-2.782-1.786-4.435-1.786-3.243 0.64-4.435 1.786c-1.192 1.146-1.895 2.709-1.96 4.361z"></path>
<path d="M16 28.32c-2.915 0.002-5.736-1.030-7.962-2.912s-3.714-4.491-4.198-7.366c-0.484-2.874 0.066-5.827 1.553-8.334s3.814-4.406 6.568-5.36c2.754-0.954 5.758-0.9 8.476 0.151s4.977 3.031 6.374 5.59c1.397 2.558 1.842 5.529 1.256 8.384s-2.165 5.41-4.457 7.212c-2.171 1.705-4.85 2.632-7.61 2.635zM16 5.18c-2.249 0-4.442 0.701-6.274 2.006s-3.211 3.149-3.946 5.274-0.789 4.428-0.154 6.586c0.635 2.158 1.926 4.064 3.695 5.453 1.596 1.252 3.511 2.031 5.529 2.247s4.054-0.14 5.879-1.026c1.825-0.886 3.364-2.268 4.441-3.986s1.65-3.706 1.652-5.734c-0.004-2.868-1.145-5.618-3.174-7.647s-4.778-3.17-7.647-3.173z"></path>
</svg>
