<svg width="30" height="30" viewBox="0 0 30 30" fill="none" xmlns="http://www.w3.org/2000/svg">
<title>Upload</title>
<path d="M22.5 11.25H20.625C20.2798 11.25 20 11.5298 20 11.875C20 12.2202 20.2798 12.5 20.625 12.5H22.5C23.88 12.5018 24.9982 13.62 25 15V23.75C24.9982 25.13 23.88 26.2482 22.5 26.25H7.5C6.12 26.2482 5.00175 25.13 5 23.75V15C5.00175 13.62 6.12 12.5018 7.5 12.5H10.625C10.9702 12.5 11.25 12.2202 11.25 11.875C11.25 11.5298 10.9702 11.25 10.625 11.25H7.5C5.42984 11.2523 3.75229 12.9298 3.75 15V23.75C3.75229 25.8202 5.42984 27.4977 7.5 27.5H22.5C24.5702 27.4977 26.2477 25.8202 26.25 23.75V15C26.2477 12.9298 24.5702 11.2523 22.5 11.25ZM11.0779 7.93091L14.375 4.63371V21.8757C14.3752 22.2207 14.655 22.5002 15 22.5H15.0008C15.3457 22.4998 15.6252 22.22 15.625 21.875V4.63371L18.9221 7.93091C19.0392 8.04832 19.1982 8.11424 19.364 8.11401C19.5297 8.11401 19.6886 8.04817 19.8058 7.93098C20.0499 7.687 20.05 7.29126 19.8059 7.04712L15.4423 2.68349C15.3845 2.62566 15.3153 2.57996 15.2386 2.54822C15.1661 2.51831 15.0893 2.50397 15.0121 2.50244C15.0079 2.50237 15.0043 2.5 15 2.5C14.997 2.5 14.9945 2.5016 14.9915 2.50168C14.9131 2.50275 14.8348 2.5177 14.7612 2.54822C14.6846 2.57988 14.6156 2.62558 14.558 2.68326L10.1941 7.0472C10.1911 7.05009 10.1881 7.05307 10.1852 7.05612C9.94362 7.30263 9.94759 7.69829 10.1941 7.93983C10.4406 8.18138 10.8363 8.17741 11.0779 7.93091Z" fill="black"/>
</svg>
